%TF.GenerationSoftware,KiCad,Pcbnew,10.0.5*%
%TF.CreationDate,2026-08-31T02:08:17+07:00*%
%TF.ProjectId,SmartWatch_Carrier_v1,536d6172-7457-4617-9463-685f43617272,rev?*%
%TF.SameCoordinates,Original*%
%TF.FileFunction,Soldermask,Bot*%
%TF.FilePolarity,Negative*%
%FSLAX46Y46*%
G04 Gerber Fmt 4.6, Leading zero omitted, Abs format (unit mm)*
G04 Created by KiCad (PCBNEW 10.0.5) date 2026-08-31 02:08:17*
%MOMM*%
%LPD*%
G01*
G04 APERTURE LIST*
G04 Aperture macros list*
%AMRoundRect*
0 Rectangle with rounded corners*
0 $1 Rounding radius*
0 $2 $3 $4 $5 $6 $7 $8 $9 X,Y pos of 4 corners*
0 Add a 4 corners polygon primitive as box body*
4,1,4,$2,$3,$4,$5,$6,$7,$8,$9,$2,$3,0*
0 Add four circle primitives for the rounded corners*
1,1,$1+$1,$2,$3*
1,1,$1+$1,$4,$5*
1,1,$1+$1,$6,$7*
1,1,$1+$1,$8,$9*
0 Add four rect primitives between the rounded corners*
20,1,$1+$1,$2,$3,$4,$5,0*
20,1,$1+$1,$4,$5,$6,$7,0*
20,1,$1+$1,$6,$7,$8,$9,0*
20,1,$1+$1,$8,$9,$2,$3,0*%
G04 Aperture macros list end*
%ADD10RoundRect,0.450000X-0.400000X-0.400000X0.400000X-0.400000X0.400000X0.400000X-0.400000X0.400000X0*%
%ADD11RoundRect,0.050000X-0.750000X-0.750000X0.750000X-0.750000X0.750000X0.750000X-0.750000X0.750000X0*%
%ADD12C,1.500000*%
%ADD13RoundRect,0.050000X-0.600000X-0.300000X0.600000X-0.300000X0.600000X0.300000X-0.600000X0.300000X0*%
%ADD14RoundRect,0.050000X-0.350000X-0.400000X0.350000X-0.400000X0.350000X0.400000X-0.350000X0.400000X0*%
%ADD15RoundRect,0.050000X-0.450000X-0.550000X0.450000X-0.550000X0.450000X0.550000X-0.450000X0.550000X0*%
%ADD16RoundRect,0.050000X-0.550000X-0.450000X0.550000X-0.450000X0.550000X0.450000X-0.550000X0.450000X0*%
%ADD17RoundRect,0.050000X-0.500000X-0.700000X0.500000X-0.700000X0.500000X0.700000X-0.500000X0.700000X0*%
%ADD18RoundRect,0.050000X-0.700000X-0.700000X0.700000X-0.700000X0.700000X0.700000X-0.700000X0.700000X0*%
%ADD19RoundRect,0.050000X-0.650000X-0.650000X0.650000X-0.650000X0.650000X0.650000X-0.650000X0.650000X0*%
G04 APERTURE END LIST*
D10*
%TO.C,U1*%
X92300000Y-87380000D03*
X92300000Y-89920000D03*
X92300000Y-92460000D03*
X92300000Y-95000000D03*
X92300000Y-97540000D03*
X92300000Y-100080000D03*
X92300000Y-102620000D03*
X107700000Y-87380000D03*
X107700000Y-89920000D03*
X107700000Y-92460000D03*
X107700000Y-95000000D03*
X107700000Y-97540000D03*
X107700000Y-100080000D03*
X107700000Y-102620000D03*
%TD*%
D11*
%TO.C,DISP1*%
X92380000Y-106500000D03*
X94920000Y-106500000D03*
X97460000Y-106500000D03*
X100000000Y-106500000D03*
X102540000Y-106500000D03*
X105080000Y-106500000D03*
X107620000Y-106500000D03*
%TD*%
D12*
%TO.C,U3*%
X86000000Y-87110000D03*
X86000000Y-89650000D03*
X86000000Y-92190000D03*
X86000000Y-94730000D03*
X86000000Y-97270000D03*
X86000000Y-99810000D03*
X86000000Y-102350000D03*
X86000000Y-104890000D03*
%TD*%
D13*
%TO.C,U2_CONN*%
X114000000Y-93500000D03*
X114000000Y-94500000D03*
X114000000Y-95500000D03*
X114000000Y-96500000D03*
X114000000Y-97500000D03*
X114000000Y-98500000D03*
%TD*%
D12*
%TO.C,BZ1*%
X90000000Y-83700000D03*
X90000000Y-87300000D03*
%TD*%
D14*
%TO.C,Q1*%
X93050000Y-86900000D03*
X94950000Y-86900000D03*
X94000000Y-85100000D03*
%TD*%
D15*
%TO.C,R3*%
X94900000Y-89500000D03*
X93100000Y-89500000D03*
%TD*%
%TO.C,R4*%
X89100000Y-90000000D03*
X90900000Y-90000000D03*
%TD*%
D16*
%TO.C,R1*%
X106000000Y-87400000D03*
X106000000Y-85600000D03*
%TD*%
%TO.C,R2*%
X106000000Y-88600000D03*
X106000000Y-90400000D03*
%TD*%
%TO.C,C1*%
X106000000Y-91600000D03*
X106000000Y-93400000D03*
%TD*%
D17*
%TO.C,F1*%
X88200000Y-112500000D03*
X90800000Y-112500000D03*
%TD*%
D15*
%TO.C,SW1*%
X93500000Y-112500000D03*
X95000000Y-112500000D03*
X96500000Y-112500000D03*
%TD*%
D18*
%TO.C,J1*%
X100000000Y-113000000D03*
D12*
X102000000Y-113000000D03*
%TD*%
D19*
%TO.C,D1*%
X105900000Y-112500000D03*
X109100000Y-112500000D03*
%TD*%
M02*
