M48
; DRILL file KiCad 10.0.5 date 2026-08-31T02:08:18
; FORMAT={-:-/ absolute / metric / decimal}
; #@! TF.CreationDate,2026-08-31T02:08:18+07:00
; #@! TF.GenerationSoftware,Kicad,Pcbnew,10.0.5
; #@! TF.FileFunction,MixedPlating,1,2
FMAT,2
METRIC
; #@! TA.AperFunction,Plated,PTH,ComponentDrill
T1C0.850
; #@! TA.AperFunction,Plated,PTH,ComponentDrill
T2C0.900
%
G90
G05
T1
X86.0Y-87.11
X86.0Y-89.65
X86.0Y-92.19
X86.0Y-94.73
X86.0Y-97.27
X86.0Y-99.81
X86.0Y-102.35
X86.0Y-104.89
X90.0Y-83.7
X90.0Y-87.3
X100.0Y-113.0
X102.0Y-113.0
T2
X92.3Y-87.38
X92.3Y-89.92
X92.3Y-92.46
X92.3Y-95.0
X92.3Y-97.54
X92.3Y-100.08
X92.3Y-102.62
X92.38Y-106.5
X94.92Y-106.5
X97.46Y-106.5
X100.0Y-106.5
X102.54Y-106.5
X105.08Y-106.5
X107.62Y-106.5
X107.7Y-87.38
X107.7Y-89.92
X107.7Y-92.46
X107.7Y-95.0
X107.7Y-97.54
X107.7Y-100.08
X107.7Y-102.62
M30
