%TF.GenerationSoftware,KiCad,Pcbnew,10.0.5*%
%TF.CreationDate,2026-08-31T02:08:17+07:00*%
%TF.ProjectId,SmartWatch_Carrier_v1,536d6172-7457-4617-9463-685f43617272,rev?*%
%TF.SameCoordinates,Original*%
%TF.FileFunction,Legend,Top*%
%TF.FilePolarity,Positive*%
%FSLAX46Y46*%
G04 Gerber Fmt 4.6, Leading zero omitted, Abs format (unit mm)*
G04 Created by KiCad (PCBNEW 10.0.5) date 2026-08-31 02:08:17*
%MOMM*%
%LPD*%
G01*
G04 APERTURE LIST*
%ADD10C,0.150000*%
%ADD11C,0.120000*%
G04 APERTURE END LIST*
D10*
X90928570Y-84407200D02*
X91071427Y-84454819D01*
X91071427Y-84454819D02*
X91309522Y-84454819D01*
X91309522Y-84454819D02*
X91404760Y-84407200D01*
X91404760Y-84407200D02*
X91452379Y-84359580D01*
X91452379Y-84359580D02*
X91499998Y-84264342D01*
X91499998Y-84264342D02*
X91499998Y-84169104D01*
X91499998Y-84169104D02*
X91452379Y-84073866D01*
X91452379Y-84073866D02*
X91404760Y-84026247D01*
X91404760Y-84026247D02*
X91309522Y-83978628D01*
X91309522Y-83978628D02*
X91119046Y-83931009D01*
X91119046Y-83931009D02*
X91023808Y-83883390D01*
X91023808Y-83883390D02*
X90976189Y-83835771D01*
X90976189Y-83835771D02*
X90928570Y-83740533D01*
X90928570Y-83740533D02*
X90928570Y-83645295D01*
X90928570Y-83645295D02*
X90976189Y-83550057D01*
X90976189Y-83550057D02*
X91023808Y-83502438D01*
X91023808Y-83502438D02*
X91119046Y-83454819D01*
X91119046Y-83454819D02*
X91357141Y-83454819D01*
X91357141Y-83454819D02*
X91499998Y-83502438D01*
X91928570Y-84454819D02*
X91928570Y-83788152D01*
X91928570Y-83883390D02*
X91976189Y-83835771D01*
X91976189Y-83835771D02*
X92071427Y-83788152D01*
X92071427Y-83788152D02*
X92214284Y-83788152D01*
X92214284Y-83788152D02*
X92309522Y-83835771D01*
X92309522Y-83835771D02*
X92357141Y-83931009D01*
X92357141Y-83931009D02*
X92357141Y-84454819D01*
X92357141Y-83931009D02*
X92404760Y-83835771D01*
X92404760Y-83835771D02*
X92499998Y-83788152D01*
X92499998Y-83788152D02*
X92642855Y-83788152D01*
X92642855Y-83788152D02*
X92738094Y-83835771D01*
X92738094Y-83835771D02*
X92785713Y-83931009D01*
X92785713Y-83931009D02*
X92785713Y-84454819D01*
X93690474Y-84454819D02*
X93690474Y-83931009D01*
X93690474Y-83931009D02*
X93642855Y-83835771D01*
X93642855Y-83835771D02*
X93547617Y-83788152D01*
X93547617Y-83788152D02*
X93357141Y-83788152D01*
X93357141Y-83788152D02*
X93261903Y-83835771D01*
X93690474Y-84407200D02*
X93595236Y-84454819D01*
X93595236Y-84454819D02*
X93357141Y-84454819D01*
X93357141Y-84454819D02*
X93261903Y-84407200D01*
X93261903Y-84407200D02*
X93214284Y-84311961D01*
X93214284Y-84311961D02*
X93214284Y-84216723D01*
X93214284Y-84216723D02*
X93261903Y-84121485D01*
X93261903Y-84121485D02*
X93357141Y-84073866D01*
X93357141Y-84073866D02*
X93595236Y-84073866D01*
X93595236Y-84073866D02*
X93690474Y-84026247D01*
X94166665Y-84454819D02*
X94166665Y-83788152D01*
X94166665Y-83978628D02*
X94214284Y-83883390D01*
X94214284Y-83883390D02*
X94261903Y-83835771D01*
X94261903Y-83835771D02*
X94357141Y-83788152D01*
X94357141Y-83788152D02*
X94452379Y-83788152D01*
X94642856Y-83788152D02*
X95023808Y-83788152D01*
X94785713Y-83454819D02*
X94785713Y-84311961D01*
X94785713Y-84311961D02*
X94833332Y-84407200D01*
X94833332Y-84407200D02*
X94928570Y-84454819D01*
X94928570Y-84454819D02*
X95023808Y-84454819D01*
X95261904Y-83454819D02*
X95499999Y-84454819D01*
X95499999Y-84454819D02*
X95690475Y-83740533D01*
X95690475Y-83740533D02*
X95880951Y-84454819D01*
X95880951Y-84454819D02*
X96119047Y-83454819D01*
X96928570Y-84454819D02*
X96928570Y-83931009D01*
X96928570Y-83931009D02*
X96880951Y-83835771D01*
X96880951Y-83835771D02*
X96785713Y-83788152D01*
X96785713Y-83788152D02*
X96595237Y-83788152D01*
X96595237Y-83788152D02*
X96499999Y-83835771D01*
X96928570Y-84407200D02*
X96833332Y-84454819D01*
X96833332Y-84454819D02*
X96595237Y-84454819D01*
X96595237Y-84454819D02*
X96499999Y-84407200D01*
X96499999Y-84407200D02*
X96452380Y-84311961D01*
X96452380Y-84311961D02*
X96452380Y-84216723D01*
X96452380Y-84216723D02*
X96499999Y-84121485D01*
X96499999Y-84121485D02*
X96595237Y-84073866D01*
X96595237Y-84073866D02*
X96833332Y-84073866D01*
X96833332Y-84073866D02*
X96928570Y-84026247D01*
X97261904Y-83788152D02*
X97642856Y-83788152D01*
X97404761Y-83454819D02*
X97404761Y-84311961D01*
X97404761Y-84311961D02*
X97452380Y-84407200D01*
X97452380Y-84407200D02*
X97547618Y-84454819D01*
X97547618Y-84454819D02*
X97642856Y-84454819D01*
X98404761Y-84407200D02*
X98309523Y-84454819D01*
X98309523Y-84454819D02*
X98119047Y-84454819D01*
X98119047Y-84454819D02*
X98023809Y-84407200D01*
X98023809Y-84407200D02*
X97976190Y-84359580D01*
X97976190Y-84359580D02*
X97928571Y-84264342D01*
X97928571Y-84264342D02*
X97928571Y-83978628D01*
X97928571Y-83978628D02*
X97976190Y-83883390D01*
X97976190Y-83883390D02*
X98023809Y-83835771D01*
X98023809Y-83835771D02*
X98119047Y-83788152D01*
X98119047Y-83788152D02*
X98309523Y-83788152D01*
X98309523Y-83788152D02*
X98404761Y-83835771D01*
X98833333Y-84454819D02*
X98833333Y-83454819D01*
X99261904Y-84454819D02*
X99261904Y-83931009D01*
X99261904Y-83931009D02*
X99214285Y-83835771D01*
X99214285Y-83835771D02*
X99119047Y-83788152D01*
X99119047Y-83788152D02*
X98976190Y-83788152D01*
X98976190Y-83788152D02*
X98880952Y-83835771D01*
X98880952Y-83835771D02*
X98833333Y-83883390D01*
X101071428Y-84359580D02*
X101023809Y-84407200D01*
X101023809Y-84407200D02*
X100880952Y-84454819D01*
X100880952Y-84454819D02*
X100785714Y-84454819D01*
X100785714Y-84454819D02*
X100642857Y-84407200D01*
X100642857Y-84407200D02*
X100547619Y-84311961D01*
X100547619Y-84311961D02*
X100500000Y-84216723D01*
X100500000Y-84216723D02*
X100452381Y-84026247D01*
X100452381Y-84026247D02*
X100452381Y-83883390D01*
X100452381Y-83883390D02*
X100500000Y-83692914D01*
X100500000Y-83692914D02*
X100547619Y-83597676D01*
X100547619Y-83597676D02*
X100642857Y-83502438D01*
X100642857Y-83502438D02*
X100785714Y-83454819D01*
X100785714Y-83454819D02*
X100880952Y-83454819D01*
X100880952Y-83454819D02*
X101023809Y-83502438D01*
X101023809Y-83502438D02*
X101071428Y-83550057D01*
X101928571Y-84454819D02*
X101928571Y-83931009D01*
X101928571Y-83931009D02*
X101880952Y-83835771D01*
X101880952Y-83835771D02*
X101785714Y-83788152D01*
X101785714Y-83788152D02*
X101595238Y-83788152D01*
X101595238Y-83788152D02*
X101500000Y-83835771D01*
X101928571Y-84407200D02*
X101833333Y-84454819D01*
X101833333Y-84454819D02*
X101595238Y-84454819D01*
X101595238Y-84454819D02*
X101500000Y-84407200D01*
X101500000Y-84407200D02*
X101452381Y-84311961D01*
X101452381Y-84311961D02*
X101452381Y-84216723D01*
X101452381Y-84216723D02*
X101500000Y-84121485D01*
X101500000Y-84121485D02*
X101595238Y-84073866D01*
X101595238Y-84073866D02*
X101833333Y-84073866D01*
X101833333Y-84073866D02*
X101928571Y-84026247D01*
X102404762Y-84454819D02*
X102404762Y-83788152D01*
X102404762Y-83978628D02*
X102452381Y-83883390D01*
X102452381Y-83883390D02*
X102500000Y-83835771D01*
X102500000Y-83835771D02*
X102595238Y-83788152D01*
X102595238Y-83788152D02*
X102690476Y-83788152D01*
X103023810Y-84454819D02*
X103023810Y-83788152D01*
X103023810Y-83978628D02*
X103071429Y-83883390D01*
X103071429Y-83883390D02*
X103119048Y-83835771D01*
X103119048Y-83835771D02*
X103214286Y-83788152D01*
X103214286Y-83788152D02*
X103309524Y-83788152D01*
X103642858Y-84454819D02*
X103642858Y-83788152D01*
X103642858Y-83454819D02*
X103595239Y-83502438D01*
X103595239Y-83502438D02*
X103642858Y-83550057D01*
X103642858Y-83550057D02*
X103690477Y-83502438D01*
X103690477Y-83502438D02*
X103642858Y-83454819D01*
X103642858Y-83454819D02*
X103642858Y-83550057D01*
X104500000Y-84407200D02*
X104404762Y-84454819D01*
X104404762Y-84454819D02*
X104214286Y-84454819D01*
X104214286Y-84454819D02*
X104119048Y-84407200D01*
X104119048Y-84407200D02*
X104071429Y-84311961D01*
X104071429Y-84311961D02*
X104071429Y-83931009D01*
X104071429Y-83931009D02*
X104119048Y-83835771D01*
X104119048Y-83835771D02*
X104214286Y-83788152D01*
X104214286Y-83788152D02*
X104404762Y-83788152D01*
X104404762Y-83788152D02*
X104500000Y-83835771D01*
X104500000Y-83835771D02*
X104547619Y-83931009D01*
X104547619Y-83931009D02*
X104547619Y-84026247D01*
X104547619Y-84026247D02*
X104071429Y-84121485D01*
X104976191Y-84454819D02*
X104976191Y-83788152D01*
X104976191Y-83978628D02*
X105023810Y-83883390D01*
X105023810Y-83883390D02*
X105071429Y-83835771D01*
X105071429Y-83835771D02*
X105166667Y-83788152D01*
X105166667Y-83788152D02*
X105261905Y-83788152D01*
X106261906Y-83788152D02*
X106500001Y-84454819D01*
X106500001Y-84454819D02*
X106738096Y-83788152D01*
X107642858Y-84454819D02*
X107071430Y-84454819D01*
X107357144Y-84454819D02*
X107357144Y-83454819D01*
X107357144Y-83454819D02*
X107261906Y-83597676D01*
X107261906Y-83597676D02*
X107166668Y-83692914D01*
X107166668Y-83692914D02*
X107071430Y-83740533D01*
X108071430Y-84359580D02*
X108119049Y-84407200D01*
X108119049Y-84407200D02*
X108071430Y-84454819D01*
X108071430Y-84454819D02*
X108023811Y-84407200D01*
X108023811Y-84407200D02*
X108071430Y-84359580D01*
X108071430Y-84359580D02*
X108071430Y-84454819D01*
X108738096Y-83454819D02*
X108833334Y-83454819D01*
X108833334Y-83454819D02*
X108928572Y-83502438D01*
X108928572Y-83502438D02*
X108976191Y-83550057D01*
X108976191Y-83550057D02*
X109023810Y-83645295D01*
X109023810Y-83645295D02*
X109071429Y-83835771D01*
X109071429Y-83835771D02*
X109071429Y-84073866D01*
X109071429Y-84073866D02*
X109023810Y-84264342D01*
X109023810Y-84264342D02*
X108976191Y-84359580D01*
X108976191Y-84359580D02*
X108928572Y-84407200D01*
X108928572Y-84407200D02*
X108833334Y-84454819D01*
X108833334Y-84454819D02*
X108738096Y-84454819D01*
X108738096Y-84454819D02*
X108642858Y-84407200D01*
X108642858Y-84407200D02*
X108595239Y-84359580D01*
X108595239Y-84359580D02*
X108547620Y-84264342D01*
X108547620Y-84264342D02*
X108500001Y-84073866D01*
X108500001Y-84073866D02*
X108500001Y-83835771D01*
X108500001Y-83835771D02*
X108547620Y-83645295D01*
X108547620Y-83645295D02*
X108595239Y-83550057D01*
X108595239Y-83550057D02*
X108642858Y-83502438D01*
X108642858Y-83502438D02*
X108738096Y-83454819D01*
D11*
X94300000Y-85617593D02*
X94700000Y-85617593D01*
X94500000Y-86317593D02*
X94500000Y-85617593D01*
X95066667Y-85617593D02*
X95200000Y-85617593D01*
X95200000Y-85617593D02*
X95266667Y-85650926D01*
X95266667Y-85650926D02*
X95333333Y-85717593D01*
X95333333Y-85717593D02*
X95366667Y-85850926D01*
X95366667Y-85850926D02*
X95366667Y-86084260D01*
X95366667Y-86084260D02*
X95333333Y-86217593D01*
X95333333Y-86217593D02*
X95266667Y-86284260D01*
X95266667Y-86284260D02*
X95200000Y-86317593D01*
X95200000Y-86317593D02*
X95066667Y-86317593D01*
X95066667Y-86317593D02*
X95000000Y-86284260D01*
X95000000Y-86284260D02*
X94933333Y-86217593D01*
X94933333Y-86217593D02*
X94900000Y-86084260D01*
X94900000Y-86084260D02*
X94900000Y-85850926D01*
X94900000Y-85850926D02*
X94933333Y-85717593D01*
X94933333Y-85717593D02*
X95000000Y-85650926D01*
X95000000Y-85650926D02*
X95066667Y-85617593D01*
X95666666Y-86317593D02*
X95666666Y-85617593D01*
X95666666Y-85617593D02*
X95933333Y-85617593D01*
X95933333Y-85617593D02*
X96000000Y-85650926D01*
X96000000Y-85650926D02*
X96033333Y-85684260D01*
X96033333Y-85684260D02*
X96066666Y-85750926D01*
X96066666Y-85750926D02*
X96066666Y-85850926D01*
X96066666Y-85850926D02*
X96033333Y-85917593D01*
X96033333Y-85917593D02*
X96000000Y-85950926D01*
X96000000Y-85950926D02*
X95933333Y-85984260D01*
X95933333Y-85984260D02*
X95666666Y-85984260D01*
X96366666Y-86250926D02*
X96400000Y-86284260D01*
X96400000Y-86284260D02*
X96366666Y-86317593D01*
X96366666Y-86317593D02*
X96333333Y-86284260D01*
X96333333Y-86284260D02*
X96366666Y-86250926D01*
X96366666Y-86250926D02*
X96366666Y-86317593D01*
X96366666Y-85884260D02*
X96400000Y-85917593D01*
X96400000Y-85917593D02*
X96366666Y-85950926D01*
X96366666Y-85950926D02*
X96333333Y-85917593D01*
X96333333Y-85917593D02*
X96366666Y-85884260D01*
X96366666Y-85884260D02*
X96366666Y-85950926D01*
X97599999Y-85650926D02*
X97533332Y-85617593D01*
X97533332Y-85617593D02*
X97433332Y-85617593D01*
X97433332Y-85617593D02*
X97333332Y-85650926D01*
X97333332Y-85650926D02*
X97266666Y-85717593D01*
X97266666Y-85717593D02*
X97233332Y-85784260D01*
X97233332Y-85784260D02*
X97199999Y-85917593D01*
X97199999Y-85917593D02*
X97199999Y-86017593D01*
X97199999Y-86017593D02*
X97233332Y-86150926D01*
X97233332Y-86150926D02*
X97266666Y-86217593D01*
X97266666Y-86217593D02*
X97333332Y-86284260D01*
X97333332Y-86284260D02*
X97433332Y-86317593D01*
X97433332Y-86317593D02*
X97499999Y-86317593D01*
X97499999Y-86317593D02*
X97599999Y-86284260D01*
X97599999Y-86284260D02*
X97633332Y-86250926D01*
X97633332Y-86250926D02*
X97633332Y-86017593D01*
X97633332Y-86017593D02*
X97499999Y-86017593D01*
X98333332Y-86250926D02*
X98299999Y-86284260D01*
X98299999Y-86284260D02*
X98199999Y-86317593D01*
X98199999Y-86317593D02*
X98133332Y-86317593D01*
X98133332Y-86317593D02*
X98033332Y-86284260D01*
X98033332Y-86284260D02*
X97966666Y-86217593D01*
X97966666Y-86217593D02*
X97933332Y-86150926D01*
X97933332Y-86150926D02*
X97899999Y-86017593D01*
X97899999Y-86017593D02*
X97899999Y-85917593D01*
X97899999Y-85917593D02*
X97933332Y-85784260D01*
X97933332Y-85784260D02*
X97966666Y-85717593D01*
X97966666Y-85717593D02*
X98033332Y-85650926D01*
X98033332Y-85650926D02*
X98133332Y-85617593D01*
X98133332Y-85617593D02*
X98199999Y-85617593D01*
X98199999Y-85617593D02*
X98299999Y-85650926D01*
X98299999Y-85650926D02*
X98333332Y-85684260D01*
X98666666Y-86317593D02*
X98799999Y-86317593D01*
X98799999Y-86317593D02*
X98866666Y-86284260D01*
X98866666Y-86284260D02*
X98899999Y-86250926D01*
X98899999Y-86250926D02*
X98966666Y-86150926D01*
X98966666Y-86150926D02*
X98999999Y-86017593D01*
X98999999Y-86017593D02*
X98999999Y-85750926D01*
X98999999Y-85750926D02*
X98966666Y-85684260D01*
X98966666Y-85684260D02*
X98933332Y-85650926D01*
X98933332Y-85650926D02*
X98866666Y-85617593D01*
X98866666Y-85617593D02*
X98733332Y-85617593D01*
X98733332Y-85617593D02*
X98666666Y-85650926D01*
X98666666Y-85650926D02*
X98633332Y-85684260D01*
X98633332Y-85684260D02*
X98599999Y-85750926D01*
X98599999Y-85750926D02*
X98599999Y-85917593D01*
X98599999Y-85917593D02*
X98633332Y-85984260D01*
X98633332Y-85984260D02*
X98666666Y-86017593D01*
X98666666Y-86017593D02*
X98733332Y-86050926D01*
X98733332Y-86050926D02*
X98866666Y-86050926D01*
X98866666Y-86050926D02*
X98933332Y-86017593D01*
X98933332Y-86017593D02*
X98966666Y-85984260D01*
X98966666Y-85984260D02*
X98999999Y-85917593D01*
X99266666Y-86117593D02*
X99599999Y-86117593D01*
X99199999Y-86317593D02*
X99433333Y-85617593D01*
X99433333Y-85617593D02*
X99666666Y-86317593D01*
X100033333Y-85617593D02*
X100099999Y-85617593D01*
X100099999Y-85617593D02*
X100166666Y-85650926D01*
X100166666Y-85650926D02*
X100199999Y-85684260D01*
X100199999Y-85684260D02*
X100233333Y-85750926D01*
X100233333Y-85750926D02*
X100266666Y-85884260D01*
X100266666Y-85884260D02*
X100266666Y-86050926D01*
X100266666Y-86050926D02*
X100233333Y-86184260D01*
X100233333Y-86184260D02*
X100199999Y-86250926D01*
X100199999Y-86250926D02*
X100166666Y-86284260D01*
X100166666Y-86284260D02*
X100099999Y-86317593D01*
X100099999Y-86317593D02*
X100033333Y-86317593D01*
X100033333Y-86317593D02*
X99966666Y-86284260D01*
X99966666Y-86284260D02*
X99933333Y-86250926D01*
X99933333Y-86250926D02*
X99899999Y-86184260D01*
X99899999Y-86184260D02*
X99866666Y-86050926D01*
X99866666Y-86050926D02*
X99866666Y-85884260D01*
X99866666Y-85884260D02*
X99899999Y-85750926D01*
X99899999Y-85750926D02*
X99933333Y-85684260D01*
X99933333Y-85684260D02*
X99966666Y-85650926D01*
X99966666Y-85650926D02*
X100033333Y-85617593D01*
X100933333Y-86317593D02*
X100533333Y-86317593D01*
X100733333Y-86317593D02*
X100733333Y-85617593D01*
X100733333Y-85617593D02*
X100666666Y-85717593D01*
X100666666Y-85717593D02*
X100600000Y-85784260D01*
X100600000Y-85784260D02*
X100533333Y-85817593D01*
X101766666Y-86317593D02*
X101766666Y-85617593D01*
X101766666Y-85617593D02*
X101933333Y-85617593D01*
X101933333Y-85617593D02*
X102033333Y-85650926D01*
X102033333Y-85650926D02*
X102100000Y-85717593D01*
X102100000Y-85717593D02*
X102133333Y-85784260D01*
X102133333Y-85784260D02*
X102166666Y-85917593D01*
X102166666Y-85917593D02*
X102166666Y-86017593D01*
X102166666Y-86017593D02*
X102133333Y-86150926D01*
X102133333Y-86150926D02*
X102100000Y-86217593D01*
X102100000Y-86217593D02*
X102033333Y-86284260D01*
X102033333Y-86284260D02*
X101933333Y-86317593D01*
X101933333Y-86317593D02*
X101766666Y-86317593D01*
X102466666Y-86317593D02*
X102466666Y-85617593D01*
X102766666Y-86284260D02*
X102866666Y-86317593D01*
X102866666Y-86317593D02*
X103033333Y-86317593D01*
X103033333Y-86317593D02*
X103099999Y-86284260D01*
X103099999Y-86284260D02*
X103133333Y-86250926D01*
X103133333Y-86250926D02*
X103166666Y-86184260D01*
X103166666Y-86184260D02*
X103166666Y-86117593D01*
X103166666Y-86117593D02*
X103133333Y-86050926D01*
X103133333Y-86050926D02*
X103099999Y-86017593D01*
X103099999Y-86017593D02*
X103033333Y-85984260D01*
X103033333Y-85984260D02*
X102899999Y-85950926D01*
X102899999Y-85950926D02*
X102833333Y-85917593D01*
X102833333Y-85917593D02*
X102799999Y-85884260D01*
X102799999Y-85884260D02*
X102766666Y-85817593D01*
X102766666Y-85817593D02*
X102766666Y-85750926D01*
X102766666Y-85750926D02*
X102799999Y-85684260D01*
X102799999Y-85684260D02*
X102833333Y-85650926D01*
X102833333Y-85650926D02*
X102899999Y-85617593D01*
X102899999Y-85617593D02*
X103066666Y-85617593D01*
X103066666Y-85617593D02*
X103166666Y-85650926D01*
X103466666Y-86317593D02*
X103466666Y-85617593D01*
X103466666Y-85617593D02*
X103733333Y-85617593D01*
X103733333Y-85617593D02*
X103800000Y-85650926D01*
X103800000Y-85650926D02*
X103833333Y-85684260D01*
X103833333Y-85684260D02*
X103866666Y-85750926D01*
X103866666Y-85750926D02*
X103866666Y-85850926D01*
X103866666Y-85850926D02*
X103833333Y-85917593D01*
X103833333Y-85917593D02*
X103800000Y-85950926D01*
X103800000Y-85950926D02*
X103733333Y-85984260D01*
X103733333Y-85984260D02*
X103466666Y-85984260D01*
X104500000Y-86317593D02*
X104166666Y-86317593D01*
X104166666Y-86317593D02*
X104166666Y-85617593D01*
X104700000Y-86117593D02*
X105033333Y-86117593D01*
X104633333Y-86317593D02*
X104866667Y-85617593D01*
X104866667Y-85617593D02*
X105100000Y-86317593D01*
X105466667Y-85984260D02*
X105466667Y-86317593D01*
X105233333Y-85617593D02*
X105466667Y-85984260D01*
X105466667Y-85984260D02*
X105700000Y-85617593D01*
D10*
X117500000Y-100000000D02*
G75*
G02*
X82500000Y-100000000I-17500000J0D01*
G01*
X82500000Y-100000000D02*
G75*
G02*
X117500000Y-100000000I17500000J0D01*
G01*
D11*
X98535714Y-104840724D02*
X98535714Y-104090724D01*
X98535714Y-104090724D02*
X98714285Y-104090724D01*
X98714285Y-104090724D02*
X98821428Y-104126438D01*
X98821428Y-104126438D02*
X98892857Y-104197867D01*
X98892857Y-104197867D02*
X98928571Y-104269295D01*
X98928571Y-104269295D02*
X98964285Y-104412152D01*
X98964285Y-104412152D02*
X98964285Y-104519295D01*
X98964285Y-104519295D02*
X98928571Y-104662152D01*
X98928571Y-104662152D02*
X98892857Y-104733581D01*
X98892857Y-104733581D02*
X98821428Y-104805010D01*
X98821428Y-104805010D02*
X98714285Y-104840724D01*
X98714285Y-104840724D02*
X98535714Y-104840724D01*
X99285714Y-104840724D02*
X99285714Y-104090724D01*
X99607143Y-104805010D02*
X99714286Y-104840724D01*
X99714286Y-104840724D02*
X99892857Y-104840724D01*
X99892857Y-104840724D02*
X99964286Y-104805010D01*
X99964286Y-104805010D02*
X100000000Y-104769295D01*
X100000000Y-104769295D02*
X100035714Y-104697867D01*
X100035714Y-104697867D02*
X100035714Y-104626438D01*
X100035714Y-104626438D02*
X100000000Y-104555010D01*
X100000000Y-104555010D02*
X99964286Y-104519295D01*
X99964286Y-104519295D02*
X99892857Y-104483581D01*
X99892857Y-104483581D02*
X99750000Y-104447867D01*
X99750000Y-104447867D02*
X99678571Y-104412152D01*
X99678571Y-104412152D02*
X99642857Y-104376438D01*
X99642857Y-104376438D02*
X99607143Y-104305010D01*
X99607143Y-104305010D02*
X99607143Y-104233581D01*
X99607143Y-104233581D02*
X99642857Y-104162152D01*
X99642857Y-104162152D02*
X99678571Y-104126438D01*
X99678571Y-104126438D02*
X99750000Y-104090724D01*
X99750000Y-104090724D02*
X99928571Y-104090724D01*
X99928571Y-104090724D02*
X100035714Y-104126438D01*
X100357143Y-104840724D02*
X100357143Y-104090724D01*
X100357143Y-104090724D02*
X100642857Y-104090724D01*
X100642857Y-104090724D02*
X100714286Y-104126438D01*
X100714286Y-104126438D02*
X100750000Y-104162152D01*
X100750000Y-104162152D02*
X100785714Y-104233581D01*
X100785714Y-104233581D02*
X100785714Y-104340724D01*
X100785714Y-104340724D02*
X100750000Y-104412152D01*
X100750000Y-104412152D02*
X100714286Y-104447867D01*
X100714286Y-104447867D02*
X100642857Y-104483581D01*
X100642857Y-104483581D02*
X100357143Y-104483581D01*
X101500000Y-104840724D02*
X101071429Y-104840724D01*
X101285714Y-104840724D02*
X101285714Y-104090724D01*
X101285714Y-104090724D02*
X101214286Y-104197867D01*
X101214286Y-104197867D02*
X101142857Y-104269295D01*
X101142857Y-104269295D02*
X101071429Y-104305010D01*
M02*
